<svg id="visual" viewBox="0 0 960 540" width="960" height="540" xmlns="http://www.w3.org/2000/svg" xmlns:xlink="http://www.w3.org/1999/xlink" version="1.1"><rect x="0" y="0" width="960" height="540" fill="#ffffff"></rect><defs><linearGradient id="grad1_0" x1="43.8%" y1="0%" x2="100%" y2="100%"><stop offset="14.444444444444446%" stop-color="#dbcff0" stop-opacity="1"></stop><stop offset="85.55555555555554%" stop-color="#dbcff0" stop-opacity="1"></stop></linearGradient></defs><defs><linearGradient id="grad1_1" x1="43.8%" y1="0%" x2="100%" y2="100%"><stop offset="14.444444444444446%" stop-color="#dbcff0" stop-opacity="1"></stop><stop offset="85.55555555555554%" stop-color="#ede7f8" stop-opacity="1"></stop></linearGradient></defs><defs><linearGradient id="grad1_2" x1="43.8%" y1="0%" x2="100%" y2="100%"><stop offset="14.444444444444446%" stop-color="#ffffff" stop-opacity="1"></stop><stop offset="85.55555555555554%" stop-color="#ede7f8" stop-opacity="1"></stop></linearGradient></defs><defs><linearGradient id="grad2_0" x1="0%" y1="0%" x2="56.3%" y2="100%"><stop offset="14.444444444444446%" stop-color="#dbcff0" stop-opacity="1"></stop><stop offset="85.55555555555554%" stop-color="#dbcff0" stop-opacity="1"></stop></linearGradient></defs><defs><linearGradient id="grad2_1" x1="0%" y1="0%" x2="56.3%" y2="100%"><stop offset="14.444444444444446%" stop-color="#ede7f8" stop-opacity="1"></stop><stop offset="85.55555555555554%" stop-color="#dbcff0" stop-opacity="1"></stop></linearGradient></defs><defs><linearGradient id="grad2_2" x1="0%" y1="0%" x2="56.3%" y2="100%"><stop offset="14.444444444444446%" stop-color="#ede7f8" stop-opacity="1"></stop><stop offset="85.55555555555554%" stop-color="#ffffff" stop-opacity="1"></stop></linearGradient></defs><g transform="translate(960, 0)"><path d="M0 405C-58.2 406.3 -116.3 407.6 -155 374.2C-193.6 340.8 -212.8 272.7 -223.4 223.4C-234.1 174.2 -236.3 143.9 -265.2 109.8C-294 75.7 -349.5 37.9 -405 0L0 0Z" fill="#f6f3fb"></path><path d="M0 270C-38.8 270.9 -77.6 271.7 -103.3 249.4C-129.1 227.2 -141.9 181.8 -149 149C-156.1 116.2 -157.5 95.9 -176.8 73.2C-196 50.5 -233 25.2 -270 0L0 0Z" fill="#e4dbf4"></path><path d="M0 135C-19.4 135.4 -38.8 135.9 -51.7 124.7C-64.5 113.6 -70.9 90.9 -74.5 74.5C-78 58.1 -78.8 48 -88.4 36.6C-98 25.2 -116.5 12.6 -135 0L0 0Z" fill="#dbcff0"></path></g><g transform="translate(0, 540)"><path d="M0 -405C28.4 -343.6 56.7 -282.2 112.9 -272.5C169 -262.9 252.9 -305.1 286.4 -286.4C319.8 -267.6 302.8 -188 314.1 -130.1C325.5 -72.2 365.2 -36.1 405 0L0 0Z" fill="#f6f3fb"></path><path d="M0 -270C18.9 -229.1 37.8 -188.1 75.3 -181.7C112.7 -175.3 168.6 -203.4 190.9 -190.9C213.2 -178.4 201.8 -125.3 209.4 -86.7C217 -48.2 243.5 -24.1 270 0L0 0Z" fill="#e4dbf4"></path><path d="M0 -135C9.5 -114.5 18.9 -94.1 37.6 -90.8C56.3 -87.6 84.3 -101.7 95.5 -95.5C106.6 -89.2 100.9 -62.7 104.7 -43.4C108.5 -24.1 121.7 -12 135 0L0 0Z" fill="#dbcff0"></path></g></svg>